<svg width="222" height="318" viewBox="0 0 222 318" fill="none" xmlns="http://www.w3.org/2000/svg">
<g filter="url(#filter0_d)">
<path d="M118.466 310C142.414 289.625 147.527 273.342 118.466 221.986C141.533 231.94 152.777 242.697 164.941 276.298C176.635 260.464 118.247 197.123 99.6807 146.952C91.1877 177.906 86.8072 215.902 105.108 248.446C112.858 299.886 105.52 314.839 51.3976 292.731C-0.426421 248.114 -4.79764 215.447 14.6631 148.733C19.1336 181.626 24.4413 197.901 47.5015 216.415C28.3576 160.784 31.676 133.519 59.7464 91.0782C92.6667 48.0524 102.246 27.3348 94.2546 0C133.798 30.9492 146.041 53.3755 142.399 106.397C154.216 83.9345 163.273 75.3063 184.699 68.5175C170.175 103.999 179.812 119.837 194.161 148.733C243.108 243.849 216.104 274.889 118.466 310Z" fill="#FF0000"/>
<path d="M127.203 304.661C134.99 296.711 139.813 288.491 140.342 277.709C140.964 265.013 135.597 249.128 123.166 226.325C131.817 230.511 138.52 235.09 144.296 241.602C151.267 249.46 157.014 260.277 163.06 276.979L164.331 280.49L166.549 277.486C168.461 274.898 168.785 271.546 168.233 267.948C167.678 264.335 166.197 260.171 164.105 255.627C159.919 246.532 153.06 235.449 145.342 223.421C143.574 220.666 141.76 217.86 139.92 215.014C125.601 192.861 109.698 168.258 101.556 146.258L99.3978 140.425L97.752 146.423C89.2467 177.422 84.696 215.926 103.184 249.104C105.081 261.77 106.027 272.065 105.599 280.069C105.164 288.193 103.331 293.562 100.062 296.734C96.8566 299.844 91.826 301.256 83.9322 300.384C76.0933 299.518 65.7886 296.432 52.4556 291.003C26.848 268.91 13.2306 249.986 8.24653 228.565C3.69485 209.003 6.27189 187.078 14.0488 158.299C15.9885 170.347 18.3577 180.138 22.2903 188.793C27.2168 199.636 34.5355 208.57 46.2494 217.975L51.6436 222.305L49.3927 215.764C39.8553 188.049 36.0064 167.651 37.9083 149.003C39.8053 130.402 47.4496 113.306 61.3767 92.2387C77.8156 70.7501 88.5845 54.6357 94.2029 40.3887C99.0867 28.0043 100.076 17.0429 97.6304 5.24577C114.71 19.1084 125.953 31.354 132.71 45.7703C140.052 61.432 142.214 79.902 140.404 106.26L144.169 107.328C150.04 96.1681 155.128 88.6404 161.288 83.0621C166.609 78.2435 172.83 74.7904 181.275 71.7771C175.299 87.7714 174.348 99.9493 176.641 111.485C178.843 122.555 184.031 132.933 190.215 145.303C190.922 146.715 191.641 148.154 192.37 149.623L192.376 149.635L192.383 149.648C216.834 197.163 221.842 227.851 209.519 250.926C203.332 262.512 192.659 272.423 177.336 281.652C164.031 289.665 147.32 297.105 127.203 304.661Z" stroke="#C04703" stroke-width="4"/>
</g>
<defs>
<filter id="filter0_d" x="0" y="0" width="222" height="318" filterUnits="userSpaceOnUse" color-interpolation-filters="sRGB">
<feFlood flood-opacity="0" result="BackgroundImageFix"/>
<feColorMatrix in="SourceAlpha" type="matrix" values="0 0 0 0 0 0 0 0 0 0 0 0 0 0 0 0 0 0 127 0"/>
<feOffset dy="4"/>
<feGaussianBlur stdDeviation="2"/>
<feColorMatrix type="matrix" values="0 0 0 0 0 0 0 0 0 0 0 0 0 0 0 0 0 0 0.25 0"/>
<feBlend mode="normal" in2="BackgroundImageFix" result="effect1_dropShadow"/>
<feBlend mode="normal" in="SourceGraphic" in2="effect1_dropShadow" result="shape"/>
</filter>
</defs>
</svg>
